Coordinates
version=1
nRows=26
nColumns=24
inDegrees=yes

Units are S.I. units (second, meters, Newtons, ...)
Angles are in degrees.

endheader
time	pelvis_tilt	pelvis_list	pelvis_rotation	pelvis_tx	pelvis_ty	pelvis_tz	hip_flexion_r	hip_adduction_r	hip_rotation_r	knee_angle_r	ankle_angle_r	subtalar_angle_r	mtp_angle_r	hip_flexion_l	hip_adduction_l	hip_rotation_l	knee_angle_l	ankle_angle_l	subtalar_angle_l	mtp_angle_l	lumbar_extension	lumbar_bending	lumbar_rotation
      0.50400000	      1.20475446	      5.36556619	      0.72413231	     -0.75516229	      1.00716278	      0.25368876	     20.82335408	     -3.12472668	     -2.31082522	     -5.76547402	      6.43171183	    -10.49037277	      0.51218848	    -14.44624392	      9.52973961	      7.21326433	     -7.99279322	     10.13608912	    -15.44982418	      0.49532150	     -4.90239938	     -7.20210730	     -2.19206196
      0.50816667	      1.21636807	      5.36120713	      0.79625973	     -0.74945523	      1.00666170	      0.25371937	     20.76875112	     -3.06402847	     -2.21289599	     -6.00768782	      6.56046717	    -10.48025354	      1.03090564	    -14.44602699	      9.50191101	      7.02101943	     -8.73073506	     10.35294055	    -14.98828684	      0.84098487	     -4.86032843	     -7.17054837	     -2.21318635
      0.51233333	      1.29418589	      5.32686337	      0.85814426	     -0.74371328	      1.00631157	      0.25379075	     20.57569244	     -2.95678316	     -1.93273936	     -6.16825787	      6.48922876	    -10.84274243	      1.51237097	    -14.52990233	      9.44462972	      6.92148880	     -9.43387276	     10.46353923	    -14.70544093	      1.19958430	     -4.91142298	     -7.10000836	     -2.31823316
      0.51650000	      1.34856899	      5.32873950	      0.88510950	     -0.73795508	      1.00591876	      0.25386798	     20.46495085	     -2.89048031	     -1.73361181	     -6.48012453	      6.42655892	    -11.00983612	      5.87767037	    -14.55676102	      9.43493569	      6.74702055	    -10.18623779	     10.48453001	    -14.47502122	      4.87445600	     -4.91518770	     -7.06388333	     -2.28488231
      0.52066667	      1.37128421	      5.29388886	      0.97424359	     -0.73213227	      1.00555668	      0.25389289	     20.33127657	     -2.79971420	     -1.52501174	     -6.75465678	      6.36101034	    -11.24015345	      5.87030184	    -14.50055047	      9.36731519	      6.59508401	    -11.05707647	     10.60157412	    -14.07473429	      4.95291567	     -4.87088709	     -6.97802499	     -2.38891802
      0.52483333	      1.43204542	      5.27036826	      1.02287774	     -0.72631036	      1.00525421	      0.25398655	     20.15999484	     -2.70755302	     -1.24749135	     -7.06211351	      6.25262918	    -11.49296878	      5.88033653	    -14.45529040	      9.31093944	      6.35023442	    -11.97069962	     10.68518741	    -13.60317636	      5.06621938	     -4.87826821	     -6.91396516	     -2.40921968
      0.52900000	      1.48011077	      5.24033647	      1.07209605	     -0.72046446	      1.00496030	      0.25407803	     20.00069996	     -2.61107800	     -0.97549757	     -7.40131649	      6.08508136	    -11.75044488	      5.90702202	    -14.35566626	      9.24366816	      6.07381468	    -12.96330278	     10.74607754	    -13.08897300	      5.22169471	     -4.86248237	     -6.84042739	     -2.43072893
      0.53316667	      1.52581150	      5.21234816	      1.11505924	     -0.71461570	      1.00468483	      0.25418399	     19.85087616	     -2.51714939	     -0.70484156	     -7.78256705	      5.88540594	    -12.00046897	      5.94368113	    -14.21806899	      9.17534182	      5.78002839	    -14.01873874	     10.78324780	    -12.55509978	      5.39841849	     -4.85846452	     -6.76202714	     -2.44227831
      0.53733333	      1.62622957	      5.16456672	      1.15547944	     -0.70873125	      1.00453216	      0.25431190	     19.60481213	     -2.40394603	     -0.43965650	     -8.10909383	      5.60823769	    -12.25647490	      6.08769196	    -14.09061569	      9.06333272	      5.35758846	    -15.15387543	     10.78530007	    -11.86181562	      6.04154367	     -4.90060526	     -6.66142570	     -2.41408474
      0.54150000	      1.63702692	      5.12869470	      1.18012138	     -0.70282590	      1.00426182	      0.25447622	     19.47674849	     -2.29636165	     -0.11659521	     -8.49680971	      5.30354957	    -12.62585238	      7.10759751	    -13.83551355	      8.96971832	      4.94670336	    -16.33288386	     10.60909765	    -11.35572002	     10.80594874	     -4.82234474	     -6.57553853	     -2.37735332
      0.54566667	      1.65167404	      5.10048305	      1.25227017	     -0.69695462	      1.00402619	      0.25456506	     19.36705844	     -2.22579007	      0.03499049	     -8.95959288	      5.08631469	    -12.75037750	      7.10500449	    -13.52468646	      8.86496732	      4.55536608	    -17.63977754	     10.54149141	    -10.65337284	     10.88305469	     -4.76388998	     -6.50561777	     -2.41150338
      0.54983333	      1.69327935	      5.05312350	      1.28935668	     -0.69107501	      1.00385262	      0.25473126	     19.21294091	     -2.12116459	      0.26110045	     -9.39356929	      4.78544545	    -12.99690181	      7.10945225	    -13.20179622	      8.72816483	      4.06245134	    -19.00181299	     10.39665166	     -9.90222063	     11.02417340	     -4.73281582	     -6.40547537	     -2.37546943
      0.55400000	      1.73205815	      5.00211497	      1.33019864	     -0.68520340	      1.00369660	      0.25490200	     19.06712049	     -2.01898671	      0.45407201	     -9.84807815	      4.48544031	    -13.21022695	      7.11903642	    -12.83450322	      8.57476206	      3.55695159	    -20.43205496	     10.19224617	     -9.14995521	     11.22279579	     -4.69896390	     -6.30414568	     -2.33655532
      0.55816667	      1.76747683	      4.94642047	      1.36960703	     -0.67935475	      1.00355654	      0.25508421	     18.93482516	     -1.91605677	      0.62021550	    -10.32956847	      4.19306454	    -13.40052963	      7.12987484	    -12.41747912	      8.40375887	      3.03321028	    -21.93193053	      9.92073504	     -8.38658975	     11.47060868	     -4.66545051	     -6.19856788	     -2.28946094
      0.56233333	      1.80304689	      4.88433596	      1.40794262	     -0.67352595	      1.00343670	      0.25528421	     18.80880461	     -1.81039047	      0.76092588	    -10.82915545	      3.91402700	    -13.57713269	      7.14038264	    -11.95603735	      8.20891863	      2.47923061	    -23.50043113	      9.59012255	     -7.61016594	     11.77974441	     -4.63168849	     -6.08567349	     -2.23071944
      0.56650000	      1.87168124	      4.79997438	      1.44255297	     -0.66772982	      1.00338035	      0.25550693	     18.64860658	     -1.68250353	      0.88378549	    -11.33352602	      3.61813529	    -13.79615823	      7.32429694	    -11.49100316	      7.96887013	      1.89261416	    -25.10509081	      9.08366057	     -6.94984663	     19.64237594	     -4.64956169	     -5.93444749	     -2.15939067
      0.57066667	      1.88410076	      4.74241567	      1.47740458	     -0.66195480	      1.00326735	      0.25572716	     18.57295938	     -1.59280974	      0.95204964	    -11.88950953	      3.42043073	    -13.85151271	      7.31850182	    -10.92755191	      7.75540087	      1.34222252	    -26.77604347	      8.56270369	     -6.23194422	     19.70331136	     -4.58997853	     -5.83378202	     -2.09540208
      0.57483333	      1.92678123	      4.66175236	      1.51115195	     -0.65624116	      1.00320126	      0.25596590	     18.47464178	     -1.48041569	      1.00258600	    -12.46672857	      3.21945091	    -13.95857109	      7.30478216	    -10.35147503	      7.49827810	      0.77620419	    -28.51207059	      8.03022786	     -5.50442918	     19.83713276	     -4.58604858	     -5.69548192	     -2.01339400
      0.57900000	      1.96315832	      4.57302656	      1.54327343	     -0.65054795	      1.00315255	      0.25622332	     18.37922448	     -1.36263543	      1.03138731	    -13.03579580	      3.05494823	    -14.02996381	      7.28431704	     -9.73846704	      7.21859016	      0.21683244	    -30.28095963	      7.39023536	     -4.82421172	     20.02799951	     -4.56823076	     -5.55195591	     -1.92403480
      0.58316667	      1.98922658	      4.47757071	      1.57606283	     -0.64489707	      1.00310744	      0.25648705	     18.29860340	     -1.24116591	      1.04279213	    -13.61208937	      2.92748873	    -14.08205943	      7.25389379	     -9.08029271	      6.92076349	     -0.32786880	    -32.09071030	      6.69110325	     -4.19438110	     20.28976335	     -4.54769183	     -5.40384291	     -1.82396200
      0.58733333	      2.01737962	      4.37348816	      1.60629599	     -0.63928709	      1.00307699	      0.25676038	     18.21698557	     -1.11389219	      1.02961830	    -14.18929889	      2.84225365	    -14.09777250	      7.21289192	     -8.39684368	      6.60318110	     -0.85552799	    -33.92988912	      5.93124926	     -3.61461863	     20.60190801	     -4.53111939	     -5.24351313	     -1.71595308
      0.59150000	      2.05777506	      4.26677391	      1.63076831	     -0.63371302	      1.00309772	      0.25706120	     18.10551359	     -0.98119263	      1.02613040	    -14.72939704	      2.79219807	    -14.11363819	      6.26613683	     -7.70662465	      6.26906237	     -1.37798474	    -35.75862692	      4.99444789	     -3.22495774	     26.87577833	     -4.52684029	     -5.08493226	     -1.61188045
      0.59566667	      2.09554250	      4.14934201	      1.65674774	     -0.62817131	      1.00312696	      0.25735187	     18.00062198	     -0.84663703	      0.96107412	    -15.27596155	      2.79944945	    -14.02594084	      6.27139169	     -6.99108712	      5.91939445	     -1.86612572	    -37.62228610	      4.12336401	     -2.79557068	     26.89324782	     -4.52033518	     -4.92312860	     -1.50192783
      0.59983333	      2.12699530	      4.03267866	      1.67582297	     -0.62270611	      1.00314720	      0.25765017	     17.90746748	     -0.71161049	      0.90011470	    -15.82513970	      2.82710822	    -13.97540399	      6.26880713	     -6.24773795	      5.57032253	     -2.32055784	    -39.50108602	      3.27432279	     -2.42506122	     26.92087650	     -4.52840127	     -4.74596745	     -1.37352072
      0.60400000	      2.15977682	      3.90967831	      1.69205440	     -0.61728707	      1.00320024	      0.25796649	     17.80276277	     -0.56846671	      0.83276310	    -16.35254932	      2.88252386	    -13.92140874	      6.25866785	     -5.49040501	      5.20818306	     -2.75413577	    -41.37127980	      2.39092622	     -2.13843219	     26.94903975	     -4.53561579	     -4.56625856	     -1.23623439
      0.60816667	      2.18963631	      3.78432239	      1.70370186	     -0.61190400	      1.00327654	      0.25828225	     17.68471737	     -0.42377474	      0.76044557	    -16.84160882	      2.96921336	    -13.85045904	      6.24313781	     -4.72121999	      4.84624709	     -3.15501664	    -43.22793486	      1.51807500	     -1.94675210	     26.96495826	     -4.54453358	     -4.38522702	     -1.09077425
